<svg xmlns="http://www.w3.org/2000/svg" width="2000" height="2000" fill="none" viewBox="0 0 2000 2000"><path fill="#FF5400" d="M699.54 1319.77C706.27 1364.41 714.54 1409.1 730.38 1451.39C733.38 1459.33 737.14 1467.82 744.71 1471.64C754.59 1476.64 766.34 1471.64 776.34 1466.87C906.357 1405.2 1050.2 1378.47 1193.69 1389.31C1233.07 1392.31 1272.23 1398.21 1311.69 1400.14C1319.51 1400.53 1328.17 1400.48 1334.07 1395.32C1340.33 1389.84 1341.25 1380.58 1341.67 1372.27C1351.23 1182.86 1333.14 993.071 1287.99 808.876C1281.28 781.536 1273.88 754.066 1260.69 729.196C1257.17 722.536 1252.96 715.817 1246.42 712.057C1238.14 707.307 1227.91 708.256 1218.42 709.416C1028.57 732.676 841.83 783.417 650.66 789.637C633.66 790.187 612.44 790.566 600.66 804.896C592.36 814.966 599.33 825.456 605.28 834.716C625.41 866.086 633.87 904.787 642.71 940.657C652.46 980.227 659.82 1020.35 665.96 1060.66C672.13 1101.21 677.06 1141.93 681.96 1182.66C686.86 1223.39 691.57 1264.13 697.41 1304.73C698.07 1309.73 698.78 1314.74 699.54 1319.77Z"/><path fill="#1B5EC9" d="M993.17 1093.22C997.81 1097.41 1002.99 1101.77 1009.23 1102.22C1015.06 1102.63 1020.53 1099.51 1025.32 1096.15C1049.94 1078.92 1067.32 1053.44 1084.66 1028.93C1153.36 932.071 1230.99 841.872 1316.53 759.517C1326.3 750.107 1337.22 740.387 1349.53 735.567C1351.62 734.751 1353.89 734.485 1356.11 734.792C1358.33 735.099 1360.44 735.97 1362.23 737.323C1364.02 738.675 1365.44 740.463 1366.34 742.517C1367.25 744.571 1367.61 746.823 1367.4 749.057C1365.69 766.217 1355.19 783.007 1345.19 797.867C1277.57 898.329 1215.57 1002.46 1159.47 1109.79C1128.04 1169.93 1088.92 1235.97 1057.1 1285.42C1050.62 1295.48 1041.37 1304.78 1029.69 1307.42C1009.03 1312.14 991.41 1292.86 978.97 1275.7L887.22 1149.07L794.4 1020.97L771.29 989.067C764.44 979.607 755.29 969.837 751.36 958.687C744.87 940.377 758.69 928.417 776.43 930.587C795.77 932.947 816.03 945.897 832.43 955.807C850.824 967.141 868.367 979.801 884.92 993.687C918.62 1021.54 949.33 1052.69 981.37 1082.42C985.277 1086.04 989.21 1089.64 993.17 1093.22Z"/><path fill="#FACBDF" d="M460.17 1048.07C541.948 982.228 638.151 936.676 740.91 915.144C741.609 914.999 742.265 914.693 742.824 914.25C743.384 913.807 743.831 913.239 744.132 912.592C744.432 911.944 744.577 911.236 744.554 910.522C744.531 909.809 744.341 909.111 744 908.484C670 773.294 702.66 600.984 622.26 468.554C620.39 465.474 614.55 454.794 592.85 461.994C521.91 485.534 453.98 528.264 379.34 524.374C378.89 524.374 360.51 578.814 358.34 583.894C354.03 593.794 348.41 603.224 344.26 613.134C341.2 620.444 348.16 628.384 351.37 635.244C366.21 666.974 374.94 701.164 380.82 735.594C386.82 770.724 389.97 806.254 393.62 841.674C397.25 876.864 401.28 912.144 409.29 946.674C417.07 980.204 428.82 1013 447.23 1042.23C448.13 1043.66 449.044 1045.08 449.97 1046.49C450.509 1047.3 451.209 1047.99 452.027 1048.51C452.846 1049.03 453.763 1049.38 454.723 1049.53C455.682 1049.68 456.662 1049.62 457.599 1049.37C458.537 1049.12 459.413 1048.68 460.17 1048.07V1048.07Z"/><path fill="#000" d="M318.01 629.756C317.128 629.758 316.269 629.468 315.569 628.932C314.868 628.396 314.364 627.643 314.136 626.79C313.908 625.938 313.968 625.034 314.307 624.219C314.646 623.404 315.245 622.725 316.01 622.286C341.317 607.86 368.007 596.011 395.68 586.916C399.93 585.526 400.97 584.346 401.09 583.606C401.024 582.523 400.738 581.465 400.25 580.496C389.9 555.236 378.25 530.136 365.69 505.916C365.448 505.45 365.3 504.94 365.254 504.417C365.209 503.893 365.267 503.366 365.425 502.865C365.584 502.364 365.839 501.899 366.177 501.497C366.515 501.095 366.929 500.763 367.395 500.521C367.861 500.279 368.371 500.131 368.894 500.085C369.418 500.04 369.945 500.098 370.446 500.256C370.947 500.415 371.412 500.67 371.814 501.008C372.216 501.346 372.548 501.76 372.79 502.226C385.49 526.666 397.21 551.976 407.65 577.466C408.38 579.246 409.48 581.936 408.98 584.916C407.92 591.316 401.09 593.566 398.17 594.516C371.013 603.45 344.819 615.081 319.98 629.236C319.378 629.573 318.7 629.752 318.01 629.756V629.756Z"/><path fill="#1B5EC9" d="M456.07 606.767C455.167 606.773 454.288 606.473 453.576 605.915 452.865 605.358 452.364 604.575 452.154 603.696 451.944 602.817 452.038 601.893 452.42 601.074 452.803 600.256 453.452 599.59 454.26 599.187 486.337 582.992 520.421 571.125 555.62 563.897 556.64 563.729 557.686 563.962 558.537 564.547 559.389 565.133 559.981 566.026 560.189 567.038 560.398 568.051 560.206 569.105 559.654 569.979 559.102 570.853 558.234 571.479 557.23 571.727 522.724 578.819 489.309 590.454 457.86 606.327 457.307 606.614 456.693 606.765 456.07 606.767V606.767zM465.62 660.034C464.713 660.038 463.832 659.733 463.121 659.17 462.41 658.608 461.911 657.82 461.707 656.936 461.502 656.053 461.604 655.126 461.995 654.308 462.386 653.49 463.044 652.829 463.86 652.434 524.63 622.594 560.99 615.884 588.55 613.264 589.076 613.214 589.605 613.268 590.11 613.423 590.614 613.578 591.083 613.831 591.49 614.167 591.897 614.503 592.233 614.916 592.48 615.382 592.727 615.848 592.88 616.359 592.93 616.884 592.98 617.409 592.926 617.939 592.771 618.444 592.616 618.948 592.363 619.417 592.027 619.824 591.691 620.23 591.278 620.567 590.812 620.814 590.346 621.061 589.835 621.214 589.31 621.264 562.47 623.824 527 630.384 467.38 659.664 466.829 659.918 466.227 660.044 465.62 660.034V660.034zM456.07 741.338C455.188 741.34 454.329 741.05 453.629 740.514 452.928 739.977 452.424 739.225 452.196 738.372 451.968 737.52 452.028 736.616 452.367 735.801 452.706 734.986 453.305 734.307 454.07 733.868 515.56 698.668 556.52 685.608 630.78 667.938 631.767 667.798 632.77 668.033 633.594 668.594 634.417 669.156 635.001 670.005 635.231 670.974 635.461 671.944 635.321 672.965 634.838 673.837 634.355 674.708 633.564 675.368 632.62 675.688 559.15 693.168 518.62 706.077 458.03 740.777 457.436 741.13 456.761 741.323 456.07 741.338zM500.45 785.525C499.528 785.526 498.634 785.208 497.919 784.625 497.205 784.042 496.714 783.23 496.529 782.326 496.344 781.423 496.477 780.483 496.906 779.667 497.334 778.85 498.032 778.207 498.88 777.845L608.15 731.215C608.633 731.009 609.152 730.9 609.678 730.895 610.203 730.889 610.725 730.987 611.212 731.183 611.7 731.379 612.144 731.669 612.519 732.036 612.895 732.404 613.194 732.842 613.4 733.325 613.606 733.809 613.715 734.328 613.721 734.853 613.726 735.379 613.628 735.9 613.432 736.387 613.236 736.875 612.946 737.319 612.579 737.695 612.211 738.07 611.773 738.369 611.29 738.575L502.02 785.205C501.524 785.417 500.99 785.525 500.45 785.525V785.525zM485.62 872.686C484.749 872.686 483.901 872.401 483.206 871.875 482.512 871.349 482.008 870.611 481.771 869.772 481.535 868.934 481.579 868.04 481.896 867.229 482.214 866.417 482.787 865.732 483.53 865.276 544.68 827.886 608.76 800.447 643 796.997 643.525 796.944 644.056 796.995 644.561 797.148 645.067 797.3 645.537 797.551 645.946 797.885 646.354 798.219 646.693 798.631 646.943 799.096 647.192 799.561 647.348 800.071 647.4 800.597 647.453 801.122 647.401 801.652 647.249 802.158 647.096 802.663 646.846 803.133 646.511 803.542 646.177 803.951 645.766 804.289 645.3 804.539 644.835 804.789 644.326 804.944 643.8 804.997 610.65 808.337 547.92 835.317 487.7 872.137 487.07 872.507 486.351 872.697 485.62 872.686zM546.42 909.194C545.541 909.192 544.687 908.902 543.99 908.366 543.292 907.83 542.791 907.079 542.564 906.23 542.336 905.381 542.394 904.48 542.73 903.667 543.066 902.855 543.66 902.175 544.42 901.734 566.91 888.624 602.25 875.074 624.85 870.894 625.375 870.776 625.918 870.765 626.447 870.862 626.976 870.959 627.48 871.162 627.929 871.458 628.378 871.754 628.763 872.138 629.06 872.586 629.357 873.034 629.561 873.538 629.659 874.066 629.758 874.595 629.748 875.139 629.632 875.664 629.515 876.189 629.294 876.684 628.981 877.122 628.669 877.56 628.271 877.93 627.812 878.21 627.353 878.491 626.842 878.675 626.31 878.754 604.83 882.754 569.9 896.144 548.45 908.644 547.835 909.005 547.134 909.195 546.42 909.194V909.194zM615.41 1357.58C616.131 1356.34 617.125 1355.28 618.314 1354.49 619.504 1353.69 620.86 1353.18 622.278 1352.99 623.695 1352.8 625.139 1352.93 626.497 1353.38 627.856 1353.82 629.095 1354.58 630.12 1355.58 668.94 1393.42 695.38 1447.41 684.66 1500.1 679.29 1526.5 656.12 1595.18 582.3 1624.66 517.13 1650.66 436.55 1638.97 390.13 1586.33 348.75 1539.42 339.47 1467.49 365.13 1410.83 370.13 1399.9 371.19 1388.68 393.83 1401.91 424.83 1420.04 534.45 1489.62 537.52 1486.1 543.97 1478.72 568.91 1436.53 580.84 1416.23L615.41 1357.58z"/><path fill="#000" d="M518.08 1456.82C521.84 1459.46 528.29 1465.69 530.61 1461.73C587.81 1364.05 603.48 1342.53 596.81 1336.73C574.03 1316.81 523.19 1307.68 483.53 1320.22C435.46 1335.41 394.39 1367.72 400.43 1372.22C417.02 1384.66 434.59 1398.3 451.43 1410.11L518.08 1456.82Z"/><path fill="#000" d="M528.44 1467.02C524.79 1467.02 521.13 1464.19 517.86 1461.67 517.11 1461.09 516.41 1460.55 515.79 1460.11L449.15 1413.4C436.65 1404.63 423.72 1394.85 411.22 1385.4 406.78 1382.04 402.37 1378.7 398.04 1375.45 397.206 1374.81 396.566 1373.95 396.195 1372.97 395.823 1371.99 395.735 1370.92 395.94 1369.9 397.3 1361.9 415.68 1349.28 423.53 1344.21 441.85 1332.44 461.614 1323.09 482.33 1316.39 501.68 1310.27 524.69 1308.83 547.12 1312.34 568.7 1315.71 587.77 1323.5 599.44 1333.71 604.98 1338.56 601.44 1347.03 596.89 1356.02 591.53 1366.74 581.44 1383.72 566.17 1409.42 557.51 1424 546.74 1442.14 534.07 1463.78 533.616 1464.58 532.992 1465.28 532.243 1465.82 531.494 1466.36 530.637 1466.74 529.73 1466.92 529.304 1466.99 528.872 1467.02 528.44 1467.02V1467.02zM520.38 1453.56C521.12 1454.08 521.91 1454.69 522.75 1455.34 524.32 1456.61 525.992 1457.76 527.75 1458.76 540.19 1437.52 550.75 1419.69 559.33 1405.31 573.55 1381.37 582.95 1365.55 588.45 1355.01 594.78 1342.87 594.45 1340.23 594.21 1339.71 573.8 1321.87 524.96 1311.3 484.77 1324 442.69 1337.3 409.15 1362.52 404.37 1370.16 408.23 1373.06 412.14 1376.02 416.08 1379 428.52 1388.42 441.39 1398.17 453.78 1406.85L520.41 1453.56H520.38zM452.62 1638.58C451.942 1638.58 451.276 1638.41 450.684 1638.08 450.091 1637.75 449.593 1637.27 449.235 1636.7 448.877 1636.12 448.671 1635.46 448.637 1634.79 448.603 1634.11 448.742 1633.43 449.04 1632.83 459.46 1611.59 469.45 1589.74 479.12 1568.62 493.55 1537.11 507.12 1507.35 522.12 1479.33 522.362 1478.85 522.695 1478.43 523.101 1478.09 523.506 1477.75 523.976 1477.49 524.483 1477.33 524.989 1477.17 525.523 1477.11 526.052 1477.16 526.58 1477.21 527.094 1477.36 527.563 1477.61 528.032 1477.86 528.446 1478.2 528.782 1478.62 529.117 1479.03 529.368 1479.5 529.518 1480.01 529.669 1480.52 529.717 1481.05 529.658 1481.58 529.6 1482.11 529.438 1482.62 529.18 1483.08 514.34 1510.89 500.77 1540.56 486.4 1571.96 476.71 1593.13 466.69 1615.02 456.22 1636.35 455.89 1637.02 455.378 1637.59 454.741 1637.98 454.105 1638.38 453.37 1638.59 452.62 1638.58zM545.62 1507.11C544.791 1507.11 543.982 1506.85 543.305 1506.37 542.628 1505.89 542.116 1505.22 541.84 1504.44L533.84 1481.63C533.645 1481.13 533.552 1480.59 533.567 1480.06 533.582 1479.52 533.705 1478.99 533.929 1478.5 534.152 1478.01 534.471 1477.58 534.867 1477.22 535.264 1476.85 535.729 1476.57 536.235 1476.4 536.741 1476.22 537.278 1476.14 537.813 1476.18 538.349 1476.21 538.872 1476.35 539.352 1476.59 539.833 1476.83 540.26 1477.16 540.608 1477.57 540.956 1477.98 541.219 1478.45 541.38 1478.97L549.38 1501.78C549.732 1502.78 549.673 1503.87 549.216 1504.83 548.758 1505.79 547.94 1506.52 546.94 1506.88 546.517 1507.03 546.07 1507.11 545.62 1507.11zM570.31 1564.68C569.468 1564.68 568.647 1564.42 567.965 1563.92 567.282 1563.43 566.773 1562.73 566.51 1561.93L557.29 1533.93C557.126 1533.44 557.062 1532.91 557.101 1532.38 557.14 1531.86 557.282 1531.35 557.519 1530.88 557.756 1530.41 558.083 1529.99 558.481 1529.65 558.879 1529.31 559.341 1529.05 559.84 1528.88 560.339 1528.72 560.866 1528.66 561.389 1528.69 561.913 1528.73 562.424 1528.88 562.893 1529.11 563.362 1529.35 563.78 1529.68 564.123 1530.08 564.465 1530.47 564.726 1530.94 564.89 1531.43L574.11 1559.43C574.274 1559.93 574.339 1560.46 574.299 1560.98 574.26 1561.51 574.118 1562.02 573.881 1562.49 573.644 1562.96 573.317 1563.37 572.919 1563.72 572.521 1564.06 572.059 1564.32 571.56 1564.48 571.157 1564.62 570.735 1564.68 570.31 1564.68V1564.68zM596.81 1627.23C596.214 1627.24 595.626 1627.1 595.088 1626.85 594.55 1626.59 594.076 1626.22 593.7 1625.75 585.532 1615.86 580.556 1603.72 579.43 1590.94 579.343 1589.88 579.68 1588.83 580.368 1588.02 581.057 1587.21 582.039 1586.7 583.1 1586.62 584.161 1586.53 585.213 1586.86 586.025 1587.55 586.837 1588.24 587.343 1589.22 587.43 1590.29 588.429 1601.46 592.79 1612.07 599.94 1620.71 600.607 1621.54 600.921 1622.59 600.812 1623.64 600.703 1624.7 600.181 1625.67 599.36 1626.33 598.643 1626.93 597.74 1627.25 596.81 1627.23V1627.23zM1359.23 1468.02C1333.65 1468.02 1310.79 1461.32 1297.07 1451.82 1257.22 1424.25 1236.83 1373.37 1246.31 1325.22 1248.26 1315.35 1256.96 1281 1287.31 1253.6 1315.85 1227.82 1353.95 1218.07 1397.5 1225.4 1443.57 1233.15 1467.32 1259.04 1479.13 1279.4 1495.88 1308.26 1499.38 1344.98 1488.26 1375.25 1467.98 1430.44 1430.26 1452.62 1402.26 1461.5 1388.33 1465.86 1373.82 1468.06 1359.23 1468.02V1468.02zM1369.62 1230.97C1294.01 1230.97 1261.16 1291.37 1254.19 1326.77 1245.31 1371.84 1264.38 1419.45 1301.65 1445.24 1320.73 1458.44 1361.65 1465.95 1399.85 1453.85 1426.18 1445.51 1461.6 1424.62 1480.76 1372.47 1491.08 1344.38 1487.76 1310.25 1472.23 1283.4 1461.23 1264.54 1439.23 1240.53 1396.23 1233.29 1387.44 1231.78 1378.54 1231.01 1369.62 1230.97z"/><path fill="#000" d="M1364.1 1438.18C1354.5 1438.23 1344.92 1437.14 1335.58 1434.94C1313.84 1429.65 1297.52 1418.36 1287.07 1401.38C1276.94 1384.91 1271.82 1368.99 1271.41 1352.7C1270.84 1329.95 1279.7 1306.7 1297.73 1283.7C1308.73 1269.7 1328.18 1258.09 1349.84 1252.7C1374.75 1246.52 1399.3 1249.42 1418.97 1260.87C1468.11 1289.45 1468.97 1330.11 1465.16 1351.8C1458.04 1392.05 1424.16 1429.8 1389.72 1435.95C1381.26 1437.43 1372.69 1438.17 1364.1 1438.18ZM1375.43 1257.53C1345.75 1257.53 1316.9 1272.13 1304.03 1288.59C1275.03 1325.66 1271.73 1361.18 1293.88 1397.18C1318.42 1437.06 1372.37 1430.89 1388.32 1428.04C1402.95 1425.43 1418.73 1415.75 1431.6 1401.49C1444.95 1386.7 1454.07 1368.55 1457.28 1350.38C1463.28 1316.47 1448.28 1287.12 1414.95 1267.75C1402.92 1260.89 1389.28 1257.36 1375.43 1257.53V1257.53Z"/><path fill="#1B5EC9" d="M1433.15 1354.56C1432.68 1354.57 1432.21 1354.48 1431.77 1354.31 1430.78 1353.95 1429.97 1353.2 1429.52 1352.24 1429.08 1351.28 1429.04 1350.18 1429.4 1349.18 1437.95 1326.02 1428.4 1306.7 1415.23 1297.82 1414.37 1297.23 1413.78 1296.31 1413.59 1295.28 1413.39 1294.25 1413.61 1293.18 1414.2 1292.31 1414.78 1291.44 1415.69 1290.84 1416.71 1290.62 1417.74 1290.41 1418.81 1290.61 1419.69 1291.18 1435.5 1301.8 1446.96 1324.72 1436.9 1351.95 1436.62 1352.72 1436.1 1353.38 1435.43 1353.85 1434.76 1354.31 1433.97 1354.56 1433.15 1354.56zM1388.19 1413.37C1387.21 1413.36 1386.26 1412.99 1385.53 1412.34 1384.8 1411.68 1384.34 1410.78 1384.23 1409.8 1384.13 1408.83 1384.38 1407.85 1384.95 1407.05 1385.52 1406.25 1386.36 1405.68 1387.32 1405.46 1400.45 1402.46 1408.72 1392.46 1414.19 1385.79L1414.37 1385.58C1414.7 1385.17 1415.11 1384.83 1415.58 1384.58 1416.04 1384.33 1416.55 1384.17 1417.07 1384.12 1417.6 1384.07 1418.13 1384.12 1418.63 1384.27 1419.14 1384.43 1419.6 1384.68 1420.01 1385.01 1420.42 1385.35 1420.76 1385.76 1421 1386.22 1421.25 1386.69 1421.4 1387.2 1421.45 1387.72 1421.5 1388.25 1421.45 1388.77 1421.29 1389.28 1421.14 1389.78 1420.89 1390.25 1420.55 1390.66L1420.37 1390.87C1414.58 1397.87 1404.89 1409.69 1389.08 1413.26 1388.79 1413.33 1388.49 1413.37 1388.19 1413.37V1413.37z"/><path fill="#000" d="M1235.45 1517.73C1234.79 1517.74 1234.15 1517.57 1233.57 1517.27C1232.99 1516.96 1232.49 1516.51 1232.13 1515.97C1231.76 1515.42 1231.53 1514.8 1231.47 1514.14C1231.4 1513.49 1231.49 1512.83 1231.74 1512.22C1243.94 1482.22 1271.56 1449.22 1298.9 1431.87C1299.34 1431.59 1299.84 1431.4 1300.36 1431.31C1300.87 1431.22 1301.4 1431.24 1301.92 1431.35C1302.43 1431.47 1302.91 1431.68 1303.34 1431.98C1303.77 1432.29 1304.14 1432.67 1304.42 1433.11C1304.7 1433.56 1304.89 1434.05 1304.98 1434.57C1305.07 1435.09 1305.06 1435.62 1304.94 1436.13C1304.83 1436.64 1304.61 1437.13 1304.31 1437.56C1304.01 1437.99 1303.62 1438.35 1303.18 1438.63C1277.12 1455.15 1250.79 1486.63 1239.18 1515.24C1238.88 1515.98 1238.36 1516.62 1237.7 1517.06C1237.03 1517.51 1236.25 1517.74 1235.45 1517.73Z"/><path fill="#FACBDF" d="M1255.62 1505.39C1258.76 1507.53 1261.02 1510.74 1261.97 1514.42C1262.93 1518.1 1262.51 1522 1260.8 1525.39C1246.15 1554.56 1230.19 1583.39 1206.61 1605.76C1193 1618.65 1175.79 1629.52 1156.77 1628C1153.59 1627.79 1150.5 1626.82 1147.77 1625.16C1135.27 1617.31 1139.91 1600.3 1146.02 1588.09C1156.76 1566.68 1169.52 1546.35 1184.13 1527.36C1191.52 1517.73 1199.4 1508.46 1207.72 1499.61C1214.55 1492.38 1221.18 1487.42 1231.21 1491.33C1239.62 1494.68 1247.72 1500.03 1255.62 1505.39Z"/><path fill="#1B5EC9" d="M1201.12 1623.8C1200.31 1623.8 1199.52 1623.55 1198.86 1623.09 1198.19 1622.63 1197.68 1621.98 1197.39 1621.23 1191.63 1606.23 1175.83 1593.32 1157.14 1588.29 1156.61 1588.17 1156.12 1587.95 1155.68 1587.63 1155.24 1587.32 1154.87 1586.92 1154.59 1586.46 1154.31 1585.99 1154.13 1585.48 1154.05 1584.95 1153.97 1584.41 1154.01 1583.87 1154.15 1583.35 1154.29 1582.83 1154.53 1582.34 1154.86 1581.91 1155.2 1581.49 1155.61 1581.14 1156.09 1580.88 1156.56 1580.62 1157.08 1580.46 1157.62 1580.4 1158.15 1580.35 1158.7 1580.4 1159.21 1580.57 1180.62 1586.33 1198.11 1600.81 1204.85 1618.36 1205.08 1618.96 1205.17 1619.62 1205.09 1620.26 1205.02 1620.91 1204.78 1621.52 1204.42 1622.06 1204.05 1622.59 1203.56 1623.03 1202.98 1623.34 1202.41 1623.64 1201.77 1623.8 1201.12 1623.8V1623.8zM1224.24 1608.74C1223.56 1608.74 1222.9 1608.56 1222.3 1608.24 1221.71 1607.91 1221.21 1607.44 1220.85 1606.87 1203.43 1579.29 1181.06 1563.05 1157.85 1561.17 1156.79 1561.08 1155.81 1560.58 1155.12 1559.76 1154.43 1558.95 1154.09 1557.9 1154.18 1556.84 1154.26 1555.78 1154.77 1554.8 1155.58 1554.11 1156.39 1553.42 1157.44 1553.08 1158.5 1553.17 1184.27 1555.27 1208.82 1572.82 1227.62 1602.58 1227.9 1603.02 1228.09 1603.52 1228.18 1604.03 1228.27 1604.55 1228.26 1605.08 1228.14 1605.59 1228.02 1606.11 1227.81 1606.59 1227.5 1607.02 1227.2 1607.45 1226.82 1607.82 1226.37 1608.1 1225.74 1608.51 1225 1608.73 1224.24 1608.74z"/><path fill="#000" d="M1416.43 685.684C1414.9 685.679 1413.4 685.324 1412.03 684.646C1410.66 683.969 1409.46 682.986 1408.53 681.774C1407.26 680.17 1406.51 678.225 1406.36 676.188C1406.21 674.151 1406.67 672.116 1407.69 670.344L1425.19 639.754C1425.99 638.388 1426.55 636.892 1426.84 635.334C1428.46 625.464 1416.23 621.954 1400.08 618.394C1398.8 618.114 1397.55 617.844 1396.35 617.564C1378.95 613.564 1364.1 601.614 1354.53 583.864C1345.53 567.204 1342.4 547.334 1345.9 529.354C1354.32 486.014 1390.9 458.484 1411.9 445.934C1431.66 434.165 1453.15 425.574 1475.58 420.474C1509.63 412.94 1544.8 412.041 1579.19 417.824C1610.48 423.334 1635.73 434.444 1654.25 450.824C1670.82 465.494 1681.19 483.924 1684.25 504.134C1689.87 541.454 1669.34 578.984 1633.16 597.514C1608.36 610.224 1580.83 616.624 1554.21 622.814C1519.85 630.814 1487.4 638.354 1460 658.254C1456.52 660.774 1453.12 663.554 1449.51 666.504C1440.11 674.174 1430.39 682.104 1419.28 685.274C1418.35 685.542 1417.39 685.68 1416.43 685.684V685.684ZM1413.96 449.364L1415.96 452.804C1396.07 464.664 1361.53 490.594 1353.7 530.884C1347.65 561.994 1364.39 602.044 1398.09 609.764L1401.75 610.584C1416.05 613.734 1437.65 618.504 1434.68 636.634C1434.24 639.134 1433.36 641.534 1432.08 643.724L1414.58 674.314C1414.35 674.705 1414.25 675.155 1414.29 675.605C1414.32 676.055 1414.5 676.484 1414.78 676.834C1415.02 677.184 1415.38 677.447 1415.78 677.584C1416.18 677.721 1416.62 677.725 1417.03 677.594C1426.56 674.874 1435.63 667.474 1444.4 660.314C1447.94 657.424 1451.59 654.444 1455.25 651.794C1483.96 630.944 1518.73 622.854 1552.35 615.034C1578.5 608.954 1605.54 602.664 1629.46 590.404C1662.58 573.404 1681.4 539.254 1676.29 505.334C1670.29 465.274 1633.42 435.514 1577.77 425.704C1544.43 420.099 1510.33 420.972 1477.32 428.274C1455.71 433.186 1435 441.464 1415.96 452.804L1413.96 449.364Z"/><path fill="#1B5EC9" d="M1222.87 625.036C1221.66 625.041 1220.46 624.772 1219.37 624.248C1218.28 623.724 1217.32 622.958 1216.57 622.01C1215.81 621.061 1215.29 619.955 1215.02 618.773C1214.76 617.59 1214.77 616.364 1215.05 615.186C1216.3 609.826 1218.05 604.575 1219.66 599.505L1220.07 598.255C1227.28 576.085 1219.35 571.255 1205.43 566.005L1199.69 563.856C1180.95 556.856 1161.56 549.616 1147.77 534.316C1137.18 522.556 1131.2 507.056 1130.47 489.496C1129.86 472.932 1133.79 456.517 1141.84 442.025C1155.78 417.115 1180.49 397.026 1215.27 382.306C1238.17 372.655 1262.36 366.406 1287.07 363.755C1334.75 358.555 1380.39 364.996 1415.59 381.906C1466.37 406.306 1477.12 437.336 1477.2 459.076C1477.35 499.076 1442.38 537.226 1407.76 554.186C1386.85 564.426 1363.18 567.936 1340.29 571.326C1310.29 575.766 1282.03 579.955 1260.08 598.025C1256.94 600.615 1253.8 603.605 1250.77 606.505C1243.19 613.735 1235.36 621.206 1225.52 624.596C1224.67 624.884 1223.77 625.033 1222.87 625.036V625.036ZM1319.04 370.036C1308.65 370.044 1298.27 370.618 1287.94 371.755C1264 374.333 1240.57 380.397 1218.39 389.755C1185.28 403.755 1161.88 422.685 1148.82 446.005C1135.51 469.795 1132.92 505.955 1153.72 529.005C1166.19 542.855 1183.83 549.436 1202.49 556.406L1208.26 558.576C1223.81 564.466 1237 572.126 1227.67 600.786L1227.27 602.036C1225.67 606.946 1224.01 612.036 1222.84 617.036C1231.1 614.246 1237.97 607.695 1245.25 600.755C1248.39 597.755 1251.63 594.666 1255 591.896C1278.66 572.406 1309.39 567.895 1339.11 563.445C1361.4 560.145 1384.45 556.736 1404.24 547.036C1436.63 531.176 1469.34 495.896 1469.24 459.146C1469.14 431.256 1449.4 407.046 1412.17 389.146C1385.96 376.546 1353.68 369.996 1319.04 369.996V370.036Z"/><path fill="#000" d="M1519.38 555.255H1519.13C1518.07 555.191 1517.08 554.709 1516.38 553.916 1515.68 553.123 1515.32 552.083 1515.38 551.025L1521 458.645C1521.03 458.12 1521.17 457.606 1521.4 457.133 1521.63 456.66 1521.95 456.237 1522.34 455.888 1522.74 455.54 1523.2 455.272 1523.7 455.101 1524.19 454.929 1524.72 454.858 1525.25 454.89 1525.77 454.923 1526.28 455.058 1526.76 455.288 1527.23 455.519 1527.65 455.841 1528 456.235 1528.35 456.629 1528.62 457.088 1528.79 457.586 1528.96 458.083 1529.03 458.61 1529 459.135L1523.39 551.505C1523.33 552.524 1522.88 553.48 1522.13 554.177 1521.38 554.874 1520.4 555.26 1519.38 555.255zM1520.9 598.025C1517.47 598.089 1514.1 597.158 1511.19 595.345 1508.7 593.665 1503.36 588.655 1507.64 578.345 1507.7 578.208 1507.76 578.074 1507.83 577.945 1508.88 576.141 1510.28 574.568 1511.95 573.322 1513.63 572.075 1515.54 571.181 1517.56 570.693 1519.59 570.205 1521.7 570.134 1523.75 570.483 1525.81 570.833 1527.78 571.595 1529.53 572.725 1531.13 573.856 1532.46 575.328 1533.42 577.035 1534.38 578.742 1534.95 580.641 1535.09 582.595 1535.31 584.789 1535.05 587.004 1534.33 589.086 1533.6 591.168 1532.43 593.065 1530.89 594.645 1528.62 596.885 1524.83 598.025 1520.9 598.025zM1514.9 581.655C1512.84 586.805 1514.9 588.215 1515.6 588.655 1518.66 590.735 1524.17 589.975 1525.24 588.945 1525.94 588.194 1526.46 587.303 1526.78 586.332 1527.1 585.361 1527.21 584.332 1527.1 583.315 1527.06 582.536 1526.86 581.775 1526.5 581.084 1526.14 580.393 1525.63 579.789 1525.01 579.315 1524.18 578.796 1523.25 578.451 1522.28 578.301 1521.32 578.152 1520.33 578.2 1519.38 578.445 1518.46 578.656 1517.59 579.053 1516.82 579.609 1516.06 580.166 1515.41 580.872 1514.93 581.685L1514.9 581.655z"/><path fill="#1B5EC9" d="M1266.1 504.826C1265.12 504.834 1264.18 504.483 1263.44 503.84 1262.7 503.197 1262.23 502.306 1262.1 501.335 1259.23 478.765 1265.83 466.335 1283.48 460.875 1285.98 460.105 1288.67 459.405 1291.27 458.715 1296.94 457.225 1302.8 455.716 1307.48 453.396 1309.43 452.374 1311.15 450.958 1312.53 449.237 1313.91 447.515 1314.91 445.526 1315.48 443.396 1316.33 440.534 1316.6 437.532 1316.27 434.566 1315.94 431.6 1315.02 428.73 1313.56 426.125 1308.42 417.425 1297.56 411.586 1284.62 410.516 1278.4 410.006 1269.46 410.375 1262.23 415.105 1255.84 419.285 1252.12 426.685 1253.18 433.105 1253.35 434.153 1253.1 435.226 1252.48 436.089 1251.86 436.952 1250.93 437.533 1249.88 437.706 1248.83 437.878 1247.76 437.627 1246.9 437.008 1246.03 436.389 1245.45 435.453 1245.28 434.406 1243.71 424.796 1248.76 414.346 1257.85 408.406 1265.08 403.676 1274.56 401.636 1285.28 402.536 1300.85 403.816 1313.99 411.115 1320.45 422.045 1322.48 425.597 1323.76 429.523 1324.22 433.584 1324.68 437.646 1324.32 441.76 1323.14 445.676 1322.27 448.867 1320.75 451.843 1318.66 454.412 1316.58 456.981 1313.98 459.087 1311.04 460.596 1305.64 463.236 1299.39 464.886 1293.35 466.476 1290.71 467.166 1288.21 467.825 1285.87 468.545 1274.41 472.055 1267.34 478.806 1270.07 500.346 1270.2 501.397 1269.91 502.458 1269.27 503.296 1268.62 504.134 1267.66 504.681 1266.61 504.815 1266.44 504.829 1266.27 504.832 1266.1 504.826V504.826zM1266.62 544.746C1263.16 544.772 1259.79 543.723 1256.95 541.746 1252.53 538.506 1250.95 533.256 1252.64 527.336L1252.76 526.976C1254.24 523.166 1258.08 520.106 1262.76 518.976 1265.24 518.365 1267.84 518.373 1270.31 518.999 1272.79 519.625 1275.08 520.85 1276.97 522.566 1278.17 523.662 1279.09 525.024 1279.67 526.542 1280.24 528.06 1280.45 529.692 1280.28 531.306 1280.06 533.625 1279.34 535.868 1278.16 537.879 1276.99 539.889 1275.38 541.618 1273.47 542.946 1271.41 544.188 1269.03 544.812 1266.62 544.746V544.746zM1260.28 529.746C1259.38 533.146 1260.64 534.546 1261.68 535.306 1264.1 537.086 1267.98 536.986 1269.08 536.306 1269.97 535.66 1270.72 534.832 1271.28 533.878 1271.83 532.923 1272.18 531.864 1272.3 530.766 1272.37 530.379 1272.35 529.98 1272.24 529.603 1272.12 529.226 1271.92 528.881 1271.65 528.596 1270.72 527.739 1269.6 527.126 1268.38 526.814 1267.15 526.501 1265.87 526.499 1264.65 526.806 1263.75 526.963 1262.89 527.306 1262.14 527.812 1261.38 528.318 1260.73 528.977 1260.24 529.746H1260.28z"/><path fill="#fff" d="M993.62 1255.36C998.86 1263.89 1005.62 1273.36 1015.57 1274.11 1025.52 1274.86 1033.44 1266.63 1039.33 1258.72 1048.26 1246.72 1055.5 1228.78 1045.07 1218.07 1040.47 1213.36 1033.69 1211.7 1027.52 1209.4 990.61 1195.69 971.04 1156.63 944.81 1127.27 937.81 1119.42 889.02 1079.07 928.57 1146.5 934.29 1156.25 940.16 1165.67 946.14 1175.22 954.92 1189.22 962.19 1204.22 970.86 1218.3L993.62 1255.36zM723.84 1223.28C722.858 1223.28 721.907 1222.93 721.169 1222.28 720.431 1221.63 719.958 1220.73 719.84 1219.76 709.37 1134.61 695.91 1048.69 679.84 964.407 679.641 963.365 679.865 962.286 680.461 961.408 681.057 960.531 681.978 959.926 683.02 959.727 684.063 959.528 685.141 959.751 686.019 960.348 686.896 960.944 687.501 961.865 687.7 962.907 703.79 1047.37 717.28 1133.45 727.77 1218.79 727.84 1219.35 727.788 1219.93 727.619 1220.47 727.449 1221.01 727.166 1221.51 726.787 1221.94 726.409 1222.36 725.943 1222.7 725.423 1222.93 724.903 1223.16 724.339 1223.28 723.77 1223.28H723.84zM734.18 1312.17C733.261 1312.16 732.371 1311.85 731.659 1311.27 730.947 1310.68 730.456 1309.88 730.27 1308.98 726.75 1292.03 726.06 1282.93 725.61 1274.36 725.583 1273.83 725.659 1273.31 725.834 1272.81 726.01 1272.31 726.281 1271.86 726.633 1271.47 726.985 1271.08 727.411 1270.76 727.886 1270.53 728.36 1270.3 728.875 1270.17 729.4 1270.15 729.926 1270.12 730.451 1270.19 730.947 1270.37 731.443 1270.55 731.899 1270.82 732.29 1271.17 732.681 1271.52 732.999 1271.95 733.225 1272.42 733.452 1272.9 733.583 1273.41 733.61 1273.94 734.04 1282.19 734.71 1290.94 738.11 1307.35 738.326 1308.38 738.121 1309.47 737.539 1310.35 736.958 1311.24 736.048 1311.86 735.01 1312.08 734.738 1312.14 734.459 1312.17 734.18 1312.17V1312.17zM769.38 1433.45C763.07 1433.45 758.19 1431.52 755.12 1426.66 751.56 1421 741.3 1372.95 741.95 1357.72 741.973 1357.2 742.098 1356.68 742.32 1356.21 742.541 1355.73 742.855 1355.3 743.242 1354.95 743.629 1354.59 744.083 1354.31 744.577 1354.13 745.07 1353.95 745.595 1353.87 746.12 1353.89 746.646 1353.92 747.161 1354.04 747.638 1354.26 748.115 1354.49 748.543 1354.8 748.899 1355.19 749.255 1355.57 749.53 1356.03 749.711 1356.52 749.891 1357.01 749.973 1357.54 749.95 1358.06 749.35 1371.85 759.35 1417.88 761.95 1422.42 766.59 1429.78 786.57 1422.42 807.73 1414.68 824.5 1408.52 843.52 1401.54 862.01 1398.8 862.537 1398.71 863.079 1398.72 863.601 1398.84 864.124 1398.96 864.618 1399.18 865.053 1399.49 865.488 1399.8 865.856 1400.2 866.135 1400.66 866.414 1401.12 866.598 1401.63 866.676 1402.16 866.755 1402.69 866.726 1403.23 866.591 1403.74 866.457 1404.26 866.22 1404.75 865.893 1405.18 865.567 1405.6 865.159 1405.96 864.693 1406.22 864.227 1406.48 863.713 1406.65 863.18 1406.71 845.5 1409.33 826.9 1416.16 810.49 1422.19 794.08 1428.22 779.77 1433.45 769.38 1433.45zM792.44 804.964C791.379 805.04 790.332 804.691 789.528 803.994 788.725 803.298 788.231 802.31 788.155 801.249 788.08 800.188 788.429 799.141 789.125 798.337 789.822 797.534 790.809 797.04 791.87 796.964 829.49 791.504 867.76 784.964 904.78 778.584 941.8 772.204 980.17 765.654 1017.89 760.174 1018.94 760.022 1020.01 760.293 1020.86 760.927 1021.71 761.562 1022.27 762.509 1022.43 763.559 1022.58 764.609 1022.31 765.677 1021.67 766.528 1021.04 767.378 1020.09 767.942 1019.04 768.094 981.42 773.554 943.14 780.094 906.13 786.474 869.12 792.854 830.74 799.404 793.02 804.884 792.82 804.944 792.62 804.964 792.44 804.964zM1079.17 756.065C1078.18 756.064 1077.22 755.694 1076.49 755.029 1075.76 754.363 1075.29 753.448 1075.2 752.462 1075.1 751.476 1075.37 750.488 1075.96 749.691 1076.55 748.893 1077.41 748.342 1078.38 748.145 1093.83 745.015 1117.95 741.145 1135.07 740.355 1136.13 740.31 1137.17 740.688 1137.95 741.406 1138.73 742.125 1139.2 743.124 1139.24 744.185 1139.29 745.246 1138.91 746.282 1138.19 747.064 1137.47 747.846 1136.47 748.31 1135.41 748.355 1118.75 749.075 1095.14 752.915 1079.97 755.985 1079.71 756.036 1079.44 756.063 1079.17 756.065V756.065z"/><path fill="#000" d="M1010.09 1106.96C997.75 1106.96 986.97 1095.46 978.62 1086.56 976.195 1083.86 973.631 1081.29 970.94 1078.85 968.36 1076.65 961.65 1070.61 952.37 1062.25 921.81 1034.73 858.21 977.474 840.91 967.084 840.032 966.525 839.406 965.644 839.167 964.63 838.927 963.616 839.093 962.549 839.628 961.655 840.164 960.762 841.027 960.112 842.034 959.845 843.041 959.578 844.112 959.714 845.02 960.225 863.02 971.015 924.62 1026.5 957.72 1056.31 966.96 1064.62 973.63 1070.63 976.13 1072.76 979.053 1075.39 981.834 1078.17 984.46 1081.09 996.28 1093.7 1006.15 1102.89 1016.53 1097.17 1016.99 1096.9 1017.5 1096.71 1018.04 1096.64 1018.57 1096.56 1019.11 1096.6 1019.63 1096.73 1020.15 1096.87 1020.64 1097.12 1021.06 1097.45 1021.49 1097.78 1021.84 1098.19 1022.1 1098.67 1022.36 1099.14 1022.52 1099.66 1022.58 1100.19 1022.63 1100.73 1022.58 1101.27 1022.42 1101.79 1022.26 1102.3 1022 1102.78 1021.65 1103.19 1021.3 1103.6 1020.87 1103.93 1020.39 1104.17 1017.25 1105.98 1013.71 1106.94 1010.09 1106.96V1106.96zM758.88 971.974C758.294 971.974 757.716 971.845 757.185 971.596 756.655 971.347 756.185 970.985 755.81 970.535 750.33 963.955 747.31 957.664 746.57 951.314 745.57 942.804 749.32 934.524 755.86 930.684 761.45 927.404 767.69 927.434 771.94 928.024 784.53 929.804 802.37 935.945 811.68 940.615 812.628 941.091 813.349 941.924 813.682 942.931 814.016 943.938 813.936 945.036 813.46 945.984 812.984 946.932 812.151 947.653 811.144 947.987 810.137 948.321 809.038 948.241 808.09 947.765 799.34 943.385 782.61 937.614 770.82 935.954 766.6 935.354 762.72 935.954 759.91 937.584 756.12 939.804 753.91 945.074 754.52 950.394 755.07 955.154 757.52 960.064 761.96 965.394 762.637 966.21 762.963 967.262 762.865 968.317 762.768 969.373 762.255 970.346 761.44 971.024 760.727 971.636 759.82 971.973 758.88 971.974V971.974zM783.31 1009.56C782.719 1009.56 782.136 1009.43 781.601 1009.17 781.067 1008.92 780.595 1008.55 780.22 1008.1 775.266 1002.09 770.77 995.724 766.77 989.046 766.225 988.135 766.064 987.045 766.323 986.015 766.582 984.986 767.239 984.101 768.15 983.556 769.061 983.011 770.151 982.85 771.181 983.109 772.21 983.368 773.095 984.025 773.64 984.936 777.435 991.268 781.697 997.308 786.39 1003.01 786.874 1003.59 787.181 1004.3 787.277 1005.05 787.372 1005.81 787.251 1006.57 786.928 1007.26 786.605 1007.95 786.093 1008.53 785.453 1008.93 784.812 1009.34 784.069 1009.56 783.31 1009.56zM860.08 1117.96C859.375 1117.96 858.682 1117.78 858.071 1117.42 857.46 1117.07 856.952 1116.57 856.6 1115.96 839.256 1085.63 819.485 1056.75 797.48 1029.62 796.848 1028.79 796.562 1027.75 796.683 1026.72 796.804 1025.68 797.323 1024.74 798.13 1024.08 798.936 1023.43 799.967 1023.11 801.003 1023.2 802.039 1023.29 802.999 1023.78 803.68 1024.57 825.964 1052.04 845.986 1081.28 863.55 1111.99 863.811 1112.44 863.98 1112.94 864.046 1113.47 864.112 1113.99 864.075 1114.52 863.937 1115.02 863.798 1115.53 863.561 1116.01 863.239 1116.42 862.917 1116.84 862.517 1117.18 862.06 1117.45 861.455 1117.78 860.773 1117.96 860.08 1117.96zM1021.97 1311.29C1013.9 1311.29 1005.9 1308.73 1000.05 1302.59 999.688 1302.2 999.405 1301.76 999.217 1301.27 999.028 1300.78 998.938 1300.25 998.952 1299.73 998.965 1299.2 999.082 1298.69 999.295 1298.21 999.509 1297.73 999.814 1297.29 1000.2 1296.93 1000.58 1296.57 1001.02 1296.29 1001.51 1296.1 1002.01 1295.91 1002.53 1295.82 1003.05 1295.83 1003.58 1295.85 1004.1 1295.96 1004.58 1296.18 1005.06 1296.39 1005.49 1296.69 1005.85 1297.08 1014.21 1305.86 1029.01 1304.49 1038.68 1298.74 1049.98 1292.02 1057.85 1280.34 1064.06 1269.81 1088.6 1228.18 1110.2 1187.31 1131.06 1147.81 1156.36 1099.96 1180.25 1054.81 1208.6 1008.95 1215.27 998.185 1220.6 990.106 1225.77 982.766 1226.07 982.337 1226.46 981.972 1226.9 981.692 1227.35 981.413 1227.85 981.223 1228.36 981.135 1228.88 981.047 1229.41 981.061 1229.92 981.178 1230.44 981.295 1230.92 981.511 1231.35 981.815 1231.78 982.12 1232.14 982.505 1232.42 982.95 1232.7 983.395 1232.89 983.891 1232.98 984.409 1233.07 984.927 1233.05 985.457 1232.94 985.97 1232.82 986.482 1232.6 986.967 1232.3 987.396 1227.19 994.596 1221.98 1002.55 1215.41 1013.17 1187.19 1058.75 1163.36 1103.83 1138.14 1151.55 1117.2 1191.16 1095.55 1232.11 1070.93 1273.9 1064.2 1285.31 1055.59 1298 1042.74 1305.65 1036.43 1309.31 1029.27 1311.26 1021.97 1311.29zM1243.76 964.884C1243.13 964.884 1242.5 964.734 1241.94 964.446 1241.37 964.158 1240.89 963.74 1240.51 963.226 1240.14 962.712 1239.9 962.118 1239.8 961.492 1239.71 960.865 1239.76 960.225 1239.96 959.624 1241.82 954.054 1244.72 948.891 1248.52 944.414 1248.86 944.014 1249.28 943.685 1249.75 943.446 1250.21 943.207 1250.72 943.062 1251.25 943.021 1251.77 942.979 1252.3 943.04 1252.8 943.202 1253.3 943.364 1253.76 943.623 1254.16 943.963 1254.56 944.304 1254.89 944.721 1255.13 945.188 1255.37 945.656 1255.51 946.167 1255.55 946.69 1255.6 947.214 1255.53 947.741 1255.37 948.241 1255.21 948.741 1254.95 949.204 1254.61 949.604 1251.5 953.293 1249.12 957.547 1247.61 962.134 1247.34 962.942 1246.83 963.644 1246.14 964.139 1245.44 964.633 1244.61 964.894 1243.76 964.884V964.884zM1316.99 841.536C1316.24 841.536 1315.5 841.325 1314.87 840.926 1314.23 840.527 1313.72 839.957 1313.39 839.28 1313.06 838.604 1312.93 837.849 1313.01 837.102 1313.09 836.355 1313.38 835.646 1313.85 835.056 1327.6 817.616 1365.67 761.266 1360.02 743.736 1358.89 740.226 1357.11 739.436 1355.87 739.146 1348.18 737.326 1333.05 748.556 1328.6 753.146 1327.85 753.879 1326.85 754.291 1325.81 754.293 1324.76 754.296 1323.75 753.889 1323.01 753.159 1322.26 752.43 1321.82 751.435 1321.8 750.39 1321.77 749.345 1322.16 748.331 1322.87 747.566 1326.71 743.626 1344.96 728.396 1357.7 731.386 1361.03 732.166 1365.45 734.526 1367.64 741.306 1376.06 767.456 1320.69 839.306 1320.13 840.046 1319.75 840.514 1319.27 840.892 1318.73 841.15 1318.19 841.408 1317.59 841.54 1316.99 841.536zM1223.95 859.115C1223.16 859.116 1222.39 858.884 1221.74 858.45 1221.08 858.015 1220.57 857.397 1220.26 856.673 1219.96 855.948 1219.87 855.149 1220.02 854.376 1220.16 853.602 1220.53 852.889 1221.08 852.325 1224.48 848.835 1230.69 842.215 1237.88 834.555 1265.66 804.975 1291.18 778.035 1298.26 773.345 1298.7 773.055 1299.19 772.854 1299.7 772.754 1300.22 772.653 1300.75 772.655 1301.27 772.76 1301.78 772.864 1302.27 773.068 1302.71 773.362 1303.14 773.656 1303.51 774.032 1303.81 774.47 1304.1 774.908 1304.3 775.399 1304.4 775.915 1304.5 776.43 1304.5 776.961 1304.39 777.476 1304.29 777.991 1304.08 778.48 1303.79 778.916 1303.49 779.351 1303.12 779.725 1302.68 780.015 1295.79 784.575 1263.19 819.295 1243.68 840.015 1236.47 847.705 1230.23 854.335 1226.79 857.885 1226.42 858.269 1225.98 858.575 1225.49 858.786 1225.01 858.997 1224.48 859.109 1223.95 859.115V859.115z"/></svg>